<svg width="21" height="19" viewBox="0 0 21 19" fill="none" xmlns="http://www.w3.org/2000/svg">
<path d="M9.64258 8.57617H4.70117V16.4375C4.70117 16.6589 4.77279 16.8737 4.91602 17.082C5.06576 17.3099 5.24805 17.4238 5.46289 17.4238C6.43294 17.4238 6.91797 16.4212 6.91797 14.416L8.88086 15.5391C8.13216 17.1992 6.97331 18.026 5.4043 18.0195C4.49284 18.013 3.7832 17.5964 3.27539 16.7695C3.05404 16.4115 2.94336 16.0534 2.94336 15.6953V8.57617H0.902344V7.4043H2.94336V4.12305L4.70117 5.34375V7.4043H9.64258V8.57617ZM20.2383 8.57617H12.3574V11.5156C13.0671 10.7409 13.7246 10.2428 14.3301 10.0215C14.6686 9.89779 15.0495 9.83594 15.4727 9.83594C17.0612 9.83594 18.2493 10.6172 19.0371 12.1797C19.3822 12.8633 19.5547 13.5371 19.5547 14.2012C19.5547 15.4121 19.0566 16.5059 18.0605 17.4824C17.7285 17.8079 17.4811 18.0326 17.3184 18.1562L15.7168 17.1992C16.1204 16.776 16.5794 16.2552 17.0938 15.6367C17.6732 14.9401 17.9661 14.0612 17.9727 13C17.9792 12.3685 17.8359 11.8411 17.543 11.418C17.2109 10.9232 16.7422 10.6823 16.1367 10.6953C15.5768 10.7083 14.9779 10.9199 14.3398 11.3301C13.7669 11.6947 13.2917 12.1309 12.9141 12.6387C12.5039 13.1855 12.2988 13.7129 12.2988 14.2207V18.0977L10.4727 17.1211V8.57617H9.39844V7.4043H10.4727C10.4727 5.49023 9.97461 3.85612 8.97852 2.50195C8.37956 1.68815 7.82617 1.11523 7.31836 0.783203L9.29102 0.763672C10.3848 1.36263 11.2539 2.65495 11.8984 4.64062C12.2044 5.58464 12.3574 6.50586 12.3574 7.4043H20.2383V8.57617Z" fill="white"/>
</svg>
