<svg width="63" height="57" viewBox="0 0 63 57" fill="none" xmlns="http://www.w3.org/2000/svg">
<path d="M28.6562 25.8438H12.8438V51C12.8438 51.7083 13.0729 52.3958 13.5312 53.0625C14.0104 53.7917 14.5938 54.1562 15.2812 54.1562C18.3854 54.1562 19.9375 50.9479 19.9375 44.5312L26.2188 48.125C23.8229 53.4375 20.1146 56.0833 15.0938 56.0625C12.1771 56.0417 9.90625 54.7083 8.28125 52.0625C7.57292 50.9167 7.21875 49.7708 7.21875 48.625V25.8438H0.6875V22.0938H7.21875V11.5938L12.8438 15.5V22.0938H28.6562V25.8438ZM62.5625 25.8438H37.3438V35.25C39.6146 32.7708 41.7188 31.1771 43.6562 30.4688C44.7396 30.0729 45.9583 29.875 47.3125 29.875C52.3958 29.875 56.1979 32.375 58.7188 37.375C59.8229 39.5625 60.375 41.7188 60.375 43.8438C60.375 47.7188 58.7812 51.2188 55.5938 54.3438C54.5312 55.3854 53.7396 56.1042 53.2188 56.5L48.0938 53.4375C49.3854 52.0833 50.8542 50.4167 52.5 48.4375C54.3542 46.2083 55.2917 43.3958 55.3125 40C55.3333 37.9792 54.875 36.2917 53.9375 34.9375C52.875 33.3542 51.375 32.5833 49.4375 32.625C47.6458 32.6667 45.7292 33.3438 43.6875 34.6562C41.8542 35.8229 40.3333 37.2188 39.125 38.8438C37.8125 40.5938 37.1562 42.2812 37.1562 43.9062V56.3125L31.3125 53.1875V25.8438H27.875V22.0938H31.3125C31.3125 15.9688 29.7188 10.7396 26.5312 6.40625C24.6146 3.80208 22.8438 1.96875 21.2188 0.90625L27.5312 0.84375C31.0312 2.76042 33.8125 6.89583 35.875 13.25C36.8542 16.2708 37.3438 19.2188 37.3438 22.0938H62.5625V25.8438Z" fill="white"/>
</svg>
